<?xml version="1.0" ?><!DOCTYPE svg  PUBLIC '-//W3C//DTD SVG 1.1//EN'  'http://www.w3.org/Graphics/SVG/1.1/DTD/svg11.dtd'><svg enable-background="new 0 0 100 75" height="50" id="Layer_1" overflow="visible" version="1.1" viewBox="0 0 100 75" width="50" xml:space="preserve" xmlns="http://www.w3.org/2000/svg" xmlns:xlink="http://www.w3.org/1999/xlink"><path d="M95.834,66.666c0,2.297-1.869,4.168-4.168,4.168H8.334c-2.3,0-4.168-1.871-4.168-4.168V8.334  c0-2.297,1.868-4.168,4.168-4.168h83.333c2.299,0,4.168,1.871,4.168,4.168L95.834,66.666L95.834,66.666z" fill="#93CCE6"/><path d="M90.508,45.281c0.426-0.322,0.705-0.883,0.705-1.52v-2.324c0-0.996-0.689-1.807-1.541-1.807h-4.475  c-1.395,0-2.438,0.479-3.203,1.205c-0.217-0.697-0.77-1.205-1.441-1.205h-4.471c-1.229,0-2.203,0.357-2.938,0.939  c-0.266-0.551-0.752-0.939-1.328-0.939H64.37c-0.603,0-1.104,0.411-1.358,0.995c-0.107-0.085-0.183-0.188-0.3-0.269  c-1.075-0.674-2.226-0.729-3.412-0.729h-5.151c-0.604,0-1.111,0.413-1.363,1.005c-0.781-0.601-1.881-1.005-3.443-1.005h-7.13  c-0.43,0-0.839,0.207-1.131,0.576l-1.688,2.133L37.77,40.23c-0.29-0.383-0.706-0.601-1.146-0.601H27.65  c-0.852,0-1.541,0.808-1.541,1.806v10.924c0,0.996,0.688,1.806,1.541,1.806h8.84c0.43,0,0.838-0.211,1.131-0.58l1.703-2.155  l1.616,2.129c0.292,0.385,0.714,0.604,1.153,0.604h4.338c0.852,0,1.543-0.806,1.543-1.804v-1.861h1.24  c1.507,0,2.601-0.361,3.392-0.914v2.775c0,0.996,0.688,1.804,1.543,1.804h2.242c0.853,0,1.541-0.806,1.541-1.804v-2.188h0.844  c0.205,0,0.351,0.01,0.451,0.018c0.012,0.191,0.012,0.43,0.008,0.584v1.588c0,0.994,0.688,1.803,1.543,1.803h2.238  c0.248,0,0.473-0.083,0.68-0.203c0.205,0.125,0.433,0.203,0.683,0.203h7.445c0.243,0,0.465-0.078,0.668-0.195  c0.204,0.117,0.426,0.195,0.67,0.195h4.346c1.388,0,2.509-0.395,3.354-1.098c0.236,0.645,0.781,1.098,1.418,1.098h4.347  c0,0,0.006,0,0.011,0c3.153,0,5.032-1.963,5.032-5.246c0-1.525-0.349-2.662-1.112-3.582C90.538,45.314,90.52,45.297,90.508,45.281z   M49.215,48.699h-2.784v3.664h-4.337l-2.749-3.617l-2.856,3.617h-8.84V41.439h8.974l2.749,3.578l2.839-3.578h7.13  c0,0,0.006,0,0.01,0c1.769,0,3.75,0.58,3.75,3.6C53.1,48.072,51.165,48.699,49.215,48.699z M62.645,48.203  c0.316,0.533,0.363,1.029,0.371,1.992v2.166h-2.24v-1.365c0-0.658,0.056-1.631-0.358-2.141c-0.328-0.392-0.824-0.483-1.638-0.483  h-2.385v3.989h-2.24V41.438h5.15c1.129,0,1.951,0.057,2.688,0.515c0.7,0.495,1.146,1.18,1.146,2.426  c-0.002,1.748-1,2.64-1.584,2.908C62.047,47.497,62.456,47.887,62.645,48.203z M71.818,43.695h-5.227v1.988h5.098v2.229h-5.098  v2.172l5.227,0.014v2.266h-7.444V41.438h7.444V43.695z M77.51,52.357h-4.346v-2.344h4.328c0.422,0,0.723-0.063,0.908-0.271  c0.154-0.167,0.264-0.416,0.264-0.714c0-0.317-0.115-0.566-0.271-0.723c-0.17-0.166-0.404-0.242-0.795-0.242  c-2.084-0.078-4.699,0.076-4.699-3.377c0-1.588,0.851-3.254,3.189-3.254h4.473v2.323h-4.092c-0.41,0-0.672,0.021-0.895,0.197  c-0.248,0.181-0.34,0.442-0.34,0.789c0,0.411,0.207,0.688,0.488,0.813c0.237,0.096,0.487,0.123,0.868,0.123l1.199,0.041  c1.211,0.034,2.041,0.275,2.556,0.871c0.438,0.524,0.67,1.191,0.67,2.313C81.018,51.262,79.76,52.357,77.51,52.357z M86.629,52.357  h-4.346v-2.344h4.326c0.422,0,0.723-0.063,0.912-0.271c0.147-0.167,0.26-0.416,0.26-0.714c0-0.317-0.115-0.566-0.271-0.723  c-0.175-0.166-0.404-0.242-0.796-0.242c-2.086-0.078-4.7,0.076-4.7-3.377c0-1.588,0.854-3.254,3.188-3.254h4.476v2.323h-4.095  c-0.405,0-0.672,0.021-0.896,0.197c-0.246,0.181-0.336,0.442-0.336,0.789c0,0.411,0.207,0.688,0.484,0.813  c0.24,0.096,0.492,0.123,0.869,0.123l1.201,0.041c1.211,0.034,2.045,0.275,2.555,0.871c0.438,0.524,0.668,1.191,0.668,2.313  C90.133,51.262,88.879,52.357,86.629,52.357z" fill="#6E6E96"/><polygon fill="#6E6E96" points="68.447,24.496 66.915,28.851 69.995,28.851 "/><path d="M50.652,27.116c0.287-0.177,0.461-0.562,0.461-1.038c0-0.469-0.18-0.807-0.469-0.965  c-0.265-0.175-0.672-0.197-1.059-0.197h-2.749l-0.002,2.424h2.713C49.981,27.34,50.344,27.334,50.652,27.116z" fill="#6E6E96"/><path d="M59.141,43.699h-2.75v2.455h2.713c0.437,0,0.806-0.021,1.104-0.227c0.287-0.203,0.459-0.582,0.459-1.051  c0-0.465-0.172-0.805-0.461-0.98C59.934,43.709,59.534,43.699,59.141,43.699z" fill="#6E6E96"/><polygon fill="#6E6E96" points="44.207,51.37 44.207,42.609 40.78,46.917 "/><path d="M49.34,43.697h-2.909v2.781h2.882h0.004c0.857,0,1.387-0.498,1.387-1.439  C50.704,44.082,50.146,43.697,49.34,43.697z" fill="#6E6E96"/><polygon fill="#6E6E96" points="29.875,43.699 29.875,45.688 34.772,45.688 34.772,47.916 29.875,47.916 29.875,50.09 35.359,50.09   37.91,46.881 35.469,43.699 "/><polygon fill="#6E6E96" points="13.958,28.851 17.001,28.851 15.475,24.496 "/><path d="M28.408,35.367c0.613,0,1.162-0.422,1.41-1.074l0.295-0.772v0.045c0,0.994,0.689,1.801,1.541,1.801h2.289  c0.313,0,0.586-0.139,0.831-0.324c0.243,0.187,0.517,0.324,0.831,0.324h7.453c0.289,0,0.545-0.119,0.773-0.279  c0.232,0.16,0.484,0.279,0.773,0.279h2.234c0.851,0,1.541-0.809,1.541-1.804v-2.169h0.852c0.192,0,0.33,0.006,0.433,0.014  c0.011,0.187,0.007,0.405,0.007,0.552l-0.004,0.24l0.01,1.378c0.006,0.989,0.695,1.789,1.544,1.789h2.25  c0.254,0,0.48-0.09,0.691-0.219c0.215,0.129,0.445,0.219,0.697,0.219h2.279c0.745,0,1.338-0.631,1.481-1.453  c1.269,1.243,3.047,1.453,4.039,1.453h2.612c0.625,0,1.191-0.448,1.424-1.13l0.455-1.309h2.572l0.471,1.326  c0.244,0.673,0.804,1.109,1.425,1.109h4.543c0.849,0,1.541-0.809,1.541-1.804v-1.725l1.368,2.656  c0.279,0.541,0.779,0.871,1.324,0.871h3.158c0.85,0,1.543-0.809,1.543-1.804V22.638c0-0.996-0.688-1.804-1.543-1.804h-2.281  c-0.854,0-1.545,0.808-1.545,1.804v1.127l-1.063-2.058c-0.277-0.542-0.777-0.871-1.318-0.871H73.95  c-0.853,0-1.543,0.808-1.543,1.804v1.532l-0.818-2.243c-0.246-0.661-0.801-1.093-1.416-1.093h-3.342  c-0.343,0-0.664,0.129-0.924,0.357c-0.255-0.227-0.576-0.357-0.921-0.357h-2.155c-1.83,0-3.19,0.521-4.188,1.531  c-0.113-0.86-0.728-1.531-1.496-1.531h-2.277c-0.605,0-1.123,0.42-1.373,1.017c-0.096-0.082-0.172-0.179-0.277-0.253  c-1.049-0.708-2.146-0.764-3.474-0.764H44.61c-0.289,0-0.543,0.117-0.774,0.278c-0.228-0.161-0.483-0.278-0.772-0.278h-7.453  c-0.314,0-0.588,0.137-0.832,0.322c-0.245-0.187-0.518-0.322-0.831-0.322h-3.72c-0.615,0-1.176,0.434-1.416,1.101l-1.326,3.655  l-1.459-3.709c-0.254-0.637-0.803-1.047-1.4-1.047h-3.646c-0.853,0-1.542,0.808-1.542,1.804v1.568l-0.836-2.284  c-0.246-0.66-0.801-1.09-1.418-1.09h-3.313c-0.617,0-1.176,0.432-1.418,1.093L8.459,32.851c-0.205,0.555-0.155,1.193,0.128,1.703  c0.286,0.505,0.769,0.811,1.288,0.811H12.3c0.62,0,1.183-0.438,1.42-1.111l0.472-1.326h2.585l0.464,1.318  c0.238,0.676,0.801,1.117,1.428,1.117h4.539c0.85,0,1.541-0.809,1.541-1.804v-0.042l0.292,0.774  c0.245,0.654,0.799,1.076,1.407,1.076H28.408z M59.434,23.912c0.719-0.871,1.853-1.271,3.39-1.271h2.159v2.34H62.87  c-0.82,0-1.277,0.143-1.72,0.647c-0.381,0.459-0.643,1.326-0.643,2.476c0,1.168,0.195,2.013,0.615,2.563  c0.342,0.435,0.973,0.563,1.557,0.563h1l3.152-8.589h3.342l3.777,10.33v-10.33h3.396l3.926,7.606v-7.606h2.283v10.924h-3.16  l-4.232-8.199v8.199h-4.543l-0.871-2.438h-4.635l-0.84,2.438h-2.611c-1.088-0.003-2.459-0.283-3.234-1.209  c-0.787-0.929-1.197-2.188-1.197-4.171C58.23,26.564,58.477,25.083,59.434,23.912z M63.637,26.784l-0.969,2.645  c-0.215,0-0.359-0.028-0.438-0.054c-0.076-0.162-0.178-0.522-0.178-1.271c0-0.758,0.156-1.15,0.178-1.187  c0.063-0.068,0.115-0.134,0.619-0.134c0.008,0,0.017,0,0.023,0L63.637,26.784L63.637,26.784z M54.861,22.642h2.277v10.924h-2.277  V22.642z M44.605,22.64h5.133c1.14,0,1.979,0.033,2.704,0.522c0.703,0.488,1.127,1.2,1.127,2.42c0,1.74-0.989,2.642-1.571,2.91  c0.487,0.217,0.905,0.603,1.104,0.92c0.314,0.543,0.369,1.027,0.369,2.002v2.147h-2.25l-0.012-1.378  c0-0.657,0.055-1.603-0.354-2.127c-0.324-0.384-0.822-0.467-1.625-0.467h-2.39v3.972h-2.234L44.605,22.64L44.605,22.64z   M35.604,22.64h7.454v2.274h-5.224v1.968h5.1v2.239h-5.1v2.183h5.224v2.259h-7.454V22.64z M23.207,25.002v8.563h-4.541l-0.857-2.438  h-4.646l-0.865,2.438H9.873l3.996-10.924h3.313l3.798,10.344V22.642h3.644l2.921,7.41l2.681-7.41h3.72v10.924h-2.288l-0.008-8.555  l-3.236,8.555l-1.965-0.003L23.207,25.002z" fill="#6E6E96"/></svg>