<?xml version="1.0" ?><!DOCTYPE svg  PUBLIC '-//W3C//DTD SVG 1.1//EN'  'http://www.w3.org/Graphics/SVG/1.1/DTD/svg11.dtd'><svg enable-background="new 0 0 100.988 76.234" height="50" id="Layer_1" overflow="visible" version="1.1" viewBox="0 0 100.988 76.234" width="50" xml:space="preserve" xmlns="http://www.w3.org/2000/svg" xmlns:xlink="http://www.w3.org/1999/xlink"><linearGradient gradientTransform="matrix(4.1667 0 0 4.1667 1569.1016 -764.3206)" gradientUnits="userSpaceOnUse" id="XMLID_40_" x1="-377.052" x2="-351.6364" y1="186.7996" y2="198.651"><stop offset="0" style="stop-color:#FFFFFF"/><stop offset="1" style="stop-color:#FFFFFF"/></linearGradient><linearGradient gradientTransform="matrix(4.1667 0 0 4.1667 1569.1016 -764.3206)" gradientUnits="userSpaceOnUse" id="XMLID_42_" x1="-377.0515" x2="-351.636" y1="186.8005" y2="198.652"><stop offset="0" style="stop-color:#FFFFFF"/><stop offset="1" style="stop-color:#FFFFFF"/></linearGradient><linearGradient gradientTransform="matrix(4.1667 0 0 4.1667 1569.1016 -764.3206)" gradientUnits="userSpaceOnUse" id="XMLID_47_" x1="-377.1858" x2="-351.7702" y1="186.5085" y2="198.36"><stop offset="0" style="stop-color:#FFFFFF"/><stop offset="1" style="stop-color:#FFFFFF"/></linearGradient><linearGradient gradientTransform="matrix(4.1667 0 0 4.1667 1569.1016 -764.3206)" gradientUnits="userSpaceOnUse" id="XMLID_48_" x1="-377.2292" x2="-351.8137" y1="186.5876" y2="198.4391"><stop offset="0" style="stop-color:#FFFFFF"/><stop offset="1" style="stop-color:#FFFFFF"/></linearGradient><linearGradient gradientTransform="matrix(4.1667 0 0 4.1667 1569.1016 -764.3206)" gradientUnits="userSpaceOnUse" id="XMLID_49_" x1="-377.2893" x2="-351.8738" y1="186.8054" y2="198.6569"><stop offset="0" style="stop-color:#FFFFFF"/><stop offset="1" style="stop-color:#FFFFFF"/></linearGradient><linearGradient gradientTransform="matrix(4.1667 0 0 4.1667 1569.1016 -764.3206)" gradientUnits="userSpaceOnUse" id="XMLID_50_" x1="-377.1541" x2="-351.7385" y1="186.6921" y2="198.5436"><stop offset="0" style="stop-color:#FFFFFF"/><stop offset="1" style="stop-color:#FFFFFF"/></linearGradient><linearGradient gradientTransform="matrix(4.1667 0 0 4.1667 1569.1016 -764.3206)" gradientUnits="userSpaceOnUse" id="XMLID_51_" x1="-377.1687" x2="-351.754" y1="186.6746" y2="198.5256"><stop offset="0" style="stop-color:#FFFFFF"/><stop offset="1" style="stop-color:#FFFFFF"/></linearGradient><path d="M96.178,67.501c0,2.297-1.871,4.168-4.169,4.168H8.677c-2.297,0-4.167-1.871-4.167-4.168V9.169  c0-2.297,1.87-4.168,4.167-4.168H92.01c2.298,0,4.169,1.871,4.169,4.168V67.501z" fill="#F4F5F5"/><path d="M38.664,59.532l-0.623-0.088c-0.571-0.076-1.028-0.191-1.028-0.598c0-0.445,0.432-0.714,1.156-0.714  c0.775,0,1.526,0.294,1.896,0.521l0.572-1.068c-0.637-0.419-1.514-0.635-2.479-0.635c-1.539,0-2.53,0.736-2.53,1.945  c0,0.992,0.737,1.602,2.099,1.793l0.623,0.089c0.726,0.101,1.067,0.292,1.067,0.636c0,0.472-0.482,0.737-1.386,0.737  c-0.916,0-1.577-0.292-2.021-0.636l-0.624,1.028c0.727,0.535,1.642,0.789,2.633,0.789c1.756,0,2.771-0.826,2.771-1.983  C40.788,60.283,39.987,59.724,38.664,59.532z" fill="#6E6E96"/><path d="M74.459,57.842v-0.736h-1.311v6.078h1.322v-3.408c0-1.004,0.432-1.564,1.297-1.564  c0.268,0,0.547,0.039,0.825,0.153l0.408-1.246c-0.293-0.114-0.674-0.165-0.94-0.165C75.297,56.952,74.801,57.308,74.459,57.842z" fill="#6E6E96"/><path d="M45.124,62.076c-0.661,0-0.877-0.407-0.877-1.017v-2.748h2.161v-1.207h-2.161V55.26h-1.335v1.844h-1.233  v1.207h1.233v2.772c0,1.41,0.547,2.25,2.11,2.25c0.572,0,1.232-0.178,1.652-0.471l-0.382-1.131  C45.899,61.962,45.466,62.076,45.124,62.076z" fill="#6E6E96"/><path d="M24.257,56.952c-0.774-0.014-1.575,0.229-2.136,1.08c-0.419-0.674-1.081-1.08-2.009-1.08  c-0.648,0-1.285,0.19-1.78,0.902v-0.75h-1.323v6.078h1.337v-3.369c0-1.058,0.585-1.615,1.487-1.615c0.877,0,1.322,0.572,1.322,1.602  v3.384h1.334v-3.369c0-1.058,0.611-1.615,1.488-1.615c0.901,0,1.335,0.572,1.335,1.603v3.383h1.335V59.37  C26.648,57.931,25.732,56.964,24.257,56.952z" fill="#6E6E96"/><path d="M32.777,57.842c-0.42-0.547-1.055-0.89-1.92-0.89c-1.703,0-3.039,1.334-3.039,3.191  c0,1.854,1.336,3.19,3.039,3.19c0.865,0,1.5-0.344,1.92-0.891v0.738h1.322v-3.039v-3.039h-1.322V57.842z M31.023,62.089  c-1.146,0-1.844-0.877-1.844-1.944c0-1.068,0.698-1.945,1.844-1.945c1.093,0,1.83,0.839,1.83,1.945  C32.853,61.249,32.116,62.089,31.023,62.089z" fill="#6E6E96"/><path d="M82.354,57.842c-0.418-0.547-1.056-0.89-1.92-0.89c-1.703,0-3.039,1.334-3.039,3.191  c0,1.854,1.336,3.19,3.039,3.19c0.864,0,1.502-0.344,1.92-0.891v0.738h1.324v-3.039v-5.48h-1.324V57.842z M80.6,62.089  c-1.146,0-1.845-0.877-1.845-1.944c0-1.068,0.699-1.945,1.845-1.945c1.094,0,1.832,0.839,1.832,1.945  C82.432,61.249,81.693,62.089,80.6,62.089z" fill="#6E6E96"/><path d="M62.227,58.198c0.571,0,1.094,0.19,1.59,0.547l0.635-1.067c-0.66-0.521-1.271-0.726-2.188-0.726  c-1.957,0-3.242,1.348-3.242,3.191c0,1.843,1.285,3.19,3.242,3.19c0.916,0,1.526-0.203,2.188-0.725l-0.635-1.068  c-0.496,0.355-1.019,0.547-1.59,0.547c-1.058-0.013-1.832-0.774-1.832-1.944S61.17,58.21,62.227,58.198z" fill="#6E6E96"/><path d="M70.084,57.842c-0.42-0.547-1.055-0.89-1.92-0.89c-1.703,0-3.039,1.334-3.039,3.191  c0,1.854,1.336,3.19,3.039,3.19c0.865,0,1.5-0.344,1.92-0.891v0.738h1.322v-3.039v-3.039h-1.322V57.842z M68.33,62.089  c-1.145,0-1.844-0.877-1.844-1.944c0-1.068,0.699-1.945,1.844-1.945c1.092,0,1.83,0.839,1.83,1.945  C70.16,61.249,69.422,62.089,68.33,62.089z" fill="#6E6E96"/><path d="M50.528,56.952c-1.78,0-3.026,1.297-3.026,3.191c0,1.933,1.297,3.19,3.115,3.19  c0.917,0,1.754-0.229,2.493-0.852l-0.648-0.979c-0.51,0.407-1.157,0.637-1.768,0.637c-0.853,0-1.627-0.396-1.818-1.488h4.515  c0.014-0.164,0.024-0.33,0.024-0.508C53.402,58.249,52.232,56.952,50.528,56.952z M48.887,59.609  c0.14-0.878,0.674-1.477,1.614-1.477c0.853,0,1.398,0.535,1.539,1.477H48.887z" fill="#6E6E96"/><path d="M56.084,57.842v-0.736h-1.309v6.078h1.322v-3.408c0-1.004,0.432-1.564,1.297-1.564  c0.266,0,0.547,0.039,0.826,0.153l0.405-1.246c-0.291-0.114-0.674-0.165-0.938-0.165C56.924,56.952,56.428,57.308,56.084,57.842z" fill="#6E6E96"/><path d="M48.259,33.126c0-2.791,0.798-5.376,2.084-7.646c1.288,2.271,2.084,4.854,2.084,7.646  c0,2.792-0.797,5.377-2.084,7.647C49.056,38.503,48.259,35.918,48.259,33.126z" fill="#E55325"/><path d="M21.177,33.126c0-8.614,7.009-15.625,15.625-15.625c4.202,0,8.007,1.688,10.817,4.396  c-2.213,3.194-3.526,7.057-3.526,11.229c0,4.173,1.313,8.035,3.526,11.23c-2.812,2.709-6.615,4.395-10.817,4.395  C28.185,48.751,21.177,41.743,21.177,33.126z" fill="#EF6C6C"/><path d="M63.885,48.751c-4.202,0-8.006-1.686-10.817-4.395c2.213-3.195,3.527-7.059,3.527-11.23  s-1.314-8.032-3.527-11.229c2.813-2.709,6.615-4.396,10.817-4.396c8.617,0,15.625,7.011,15.625,15.625  C79.51,41.743,72.502,48.751,63.885,48.751z" fill="#FAC16C"/><linearGradient gradientTransform="matrix(4.1667 0 0 4.1667 1569.1016 -764.3206)" gradientUnits="userSpaceOnUse" id="XMLID_52_" x1="-377.2063" x2="-351.7907" y1="186.7097" y2="198.5612"><stop offset="0" style="stop-color:#FFFFFF"/><stop offset="1" style="stop-color:#FFFFFF"/></linearGradient></svg>